<svg width="143" height="36" viewBox="0 0 143 36" fill="none" xmlns="http://www.w3.org/2000/svg">
<path d="M37.8335 28.252C36.0335 28.252 34.4495 27.856 33.0815 27.064C31.7135 26.272 30.6455 25.168 29.8775 23.752C29.1335 22.336 28.7615 20.704 28.7615 18.856C28.7615 17.08 29.1335 15.508 29.8775 14.14C30.6215 12.772 31.6535 11.704 32.9735 10.936C34.3175 10.144 35.8415 9.748 37.5455 9.748C39.2735 9.748 40.7975 10.12 42.1175 10.864C43.4375 11.608 44.4575 12.652 45.1775 13.996C45.9215 15.316 46.2935 16.864 46.2935 18.64C46.2935 18.904 46.2695 19.204 46.2215 19.54C46.1975 19.852 46.1615 20.188 46.1135 20.548H33.7295C33.8255 21.316 34.0655 21.976 34.4495 22.528C34.8575 23.056 35.3495 23.476 35.9255 23.788C36.5255 24.076 37.1975 24.22 37.9415 24.22C38.8295 24.22 39.6215 24.04 40.3175 23.68C41.0375 23.296 41.5535 22.804 41.8655 22.204L45.9695 23.428C45.2495 24.964 44.1695 26.152 42.7295 26.992C41.3135 27.832 39.6815 28.252 37.8335 28.252ZM41.2535 17.2C41.2295 16.528 41.0495 15.928 40.7135 15.4C40.3775 14.848 39.9335 14.428 39.3815 14.14C38.8295 13.828 38.2175 13.672 37.5455 13.672C36.9455 13.672 36.3815 13.828 35.8535 14.14C35.3255 14.452 34.8695 14.872 34.4855 15.4C34.1255 15.904 33.8855 16.504 33.7655 17.2H41.2535ZM61.1101 28L60.7501 25.804C60.1501 26.548 59.4661 27.136 58.6981 27.568C57.9541 28 56.9461 28.216 55.6741 28.216C54.4741 28.216 53.4181 28.012 52.5061 27.604C51.6181 27.172 50.9221 26.584 50.4181 25.84C49.9141 25.072 49.6621 24.172 49.6621 23.14C49.6621 21.628 50.2021 20.38 51.2821 19.396C52.3861 18.388 54.0421 17.752 56.2501 17.488L60.7501 16.984V15.724C60.7501 15.22 60.5221 14.752 60.0661 14.32C59.6101 13.888 58.8901 13.672 57.9061 13.672C57.0421 13.672 56.2861 13.888 55.6381 14.32C55.0141 14.728 54.5941 15.352 54.3781 16.192L50.4181 14.752C50.8981 13.144 51.8101 11.908 53.1541 11.044C54.4981 10.18 56.1541 9.748 58.1221 9.748C60.5221 9.748 62.3221 10.348 63.5221 11.548C64.7461 12.724 65.3581 14.284 65.3581 16.228V28H61.1101ZM60.7501 20.188L56.8621 20.692C56.0701 20.788 55.4701 21.028 55.0621 21.412C54.6541 21.772 54.4501 22.216 54.4501 22.744C54.4501 23.248 54.6541 23.68 55.0621 24.04C55.4701 24.376 56.0461 24.544 56.7901 24.544C57.6301 24.544 58.3381 24.388 58.9141 24.076C59.5141 23.764 59.9701 23.308 60.2821 22.708C60.5941 22.108 60.7501 21.364 60.7501 20.476V20.188ZM70.3007 2.08H74.9087V28H70.3007V2.08ZM81.3519 10V4.96H86.0319V10H89.9919V14.068H86.0319V21.376C86.0319 22.312 86.2239 22.972 86.6079 23.356C87.0159 23.74 87.5199 23.944 88.1199 23.968C88.7439 23.992 89.3679 23.956 89.9919 23.86V27.82C88.8879 28.06 87.8079 28.132 86.7519 28.036C85.7199 27.94 84.7959 27.664 83.9799 27.208C83.1639 26.728 82.5159 26.008 82.0359 25.048C81.5799 24.088 81.3519 22.864 81.3519 21.376V14.068H78.7959V10H81.3519ZM93.9947 2.08H98.6027V11.764C99.1547 11.164 99.8387 10.684 100.655 10.324C101.495 9.94 102.431 9.748 103.463 9.748C104.831 9.748 106.019 10.048 107.027 10.648C108.059 11.248 108.851 12.124 109.403 13.276C109.955 14.404 110.231 15.808 110.231 17.488V28H105.371V18.1C105.371 16.708 105.095 15.664 104.543 14.968C103.991 14.272 103.163 13.924 102.059 13.924C100.931 13.924 100.067 14.308 99.4667 15.076C98.8907 15.82 98.6027 16.888 98.6027 18.28V28H93.9947V2.08ZM115.14 2.08H119.748V28H115.14V2.08ZM137.244 10H142.176L131.556 35.2H126.912L130.296 27.352L123.204 10H128.352L132.744 21.844L137.244 10Z" fill="white"/>
<path d="M0.5 14.5H5.10315L10.0345 28H5.10315L0.5 14.5Z" fill="#4CAF50"/>
<path d="M10.5363 10H15.0527L10.0345 28H5.10315L10.5363 10Z" fill="#4CAF50"/>
<path d="M10.5363 10H15.0527L20.8987 28H15.5545L10.5363 10Z" fill="#4CAF50"/>
<path d="M22.5 5L25 5.5L28 6L20.8987 28H15.9673L22.5 5Z" fill="#4CAF50"/>
<path d="M23.5878 12.2417C23.5438 12.5141 23.7289 12.7705 24.0012 12.8145C24.2736 12.8585 24.53 12.6735 24.574 12.4011L23.5878 12.2417ZM26.1498 0.683893L22.3597 5.03148L28.0199 6.14004L26.1498 0.683893ZM24.0809 12.3214C24.574 12.4011 24.5741 12.4011 24.5741 12.4011C24.5741 12.4011 24.5741 12.401 24.5741 12.401C24.5741 12.4008 24.5741 12.4007 24.5742 12.4004C24.5742 12.4 24.5744 12.3992 24.5745 12.3983C24.5748 12.3964 24.5753 12.3936 24.5759 12.3898C24.5771 12.3823 24.5789 12.3711 24.5813 12.3563C24.5861 12.3267 24.5932 12.2829 24.6024 12.226C24.6209 12.1121 24.6479 11.9458 24.6822 11.7358C24.7506 11.3159 24.8478 10.7216 24.9628 10.0246C25.1928 8.63019 25.4938 6.82507 25.778 5.18031L24.7936 5.01017C24.5087 6.65858 24.2073 8.46656 23.9771 9.86199C23.862 10.5598 23.7647 11.1547 23.6962 11.5751C23.6619 11.7853 23.6348 11.9519 23.6163 12.066C23.6071 12.123 23.6 12.1669 23.5951 12.1966C23.5927 12.2114 23.5909 12.2227 23.5897 12.2303C23.5891 12.2341 23.5886 12.2369 23.5883 12.2388C23.5882 12.2398 23.588 12.2405 23.588 12.241C23.5879 12.2412 23.5879 12.2414 23.5879 12.2415C23.5879 12.2416 23.5879 12.2416 23.5879 12.2417C23.5879 12.2417 23.5878 12.2417 24.0809 12.3214Z" fill="#4CAF50"/>
</svg>
